<?xml version="1.0" encoding="utf-8"?>
<svg width="64" height="64" viewBox="0 0 64 64" fill="none" xmlns="http://www.w3.org/2000/svg">
  <defs>
    <clipPath id="clip_path_1">
      <rect width="64" height="64" />
    </clipPath>
  </defs>
  <g clip-path="url(#clip_path_1)">
    <rect width="64" height="64" fill="#572020" fill-rule="evenodd" fill-opacity="0" />
    <g transform="translate(-3 -29)">
      <rect width="68" height="108" />
      <path d="M22.05 84.87Q14.13 84.87 10.08 79.425Q6.03 73.98 6.03 63L6.03 36.9L15.84 36.9L15.84 61.92Q15.84 69.3 18.09 72.9Q20.34 76.5 25.2 76.5Q27.9 76.5 29.97 75.15Q32.04 73.8 33.615 71.37Q35.19 68.94 36.135 65.655Q37.08 62.37 37.44 58.41L37.44 36.9L47.16 36.9L47.16 64.26L47.16 83.7L38.88 83.7L39.33 68.85L37.8 68.85Q36.63 74.43 34.515 77.985Q32.4 81.54 29.295 83.205Q26.19 84.87 22.05 84.87Z" fill="#F2F1EB" />
      <g transform="translate(43 48)">
        <rect width="25" height="25" />
        <path id="Path" d="M11.5838 4.76837e-07C11.5838 10.9741 10.9741 11.5838 0 11.5838C10.9741 11.5838 11.5838 12.1934 11.5838 23.1675C11.5838 12.1934 12.1934 11.5838 23.1675 11.5838C12.1934 11.5838 11.5838 10.9741 11.5838 0C11.5838 0 11.5838 4.76837e-07 11.5838 4.76837e-07Z" fill="#F2F1EB" fill-rule="evenodd" transform="translate(1.217 1.003)" />
      </g>
    </g>
  </g>
</svg>