<svg width="32" height="32" viewBox="0 0 32 32" fill="none" xmlns="http://www.w3.org/2000/svg">
  <defs>
    <clipPath id="clip_path_1">
      <rect width="32" height="32" />
    </clipPath>
  </defs>
  <g clip-path="url(#clip_path_1)">
    <rect width="32" height="32" fill="#F2F2F2" fill-rule="evenodd" />
    <path d="M23.276 7.612Q23.276 7.238 22.968 7.238Q22.484 7.238 21.032 8.206Q18.788 9.658 15.796 12.529Q12.804 15.4 10.802 18.106Q15.708 14.872 19.492 11.759Q23.276 8.646 23.276 7.612ZM17.864 18.92Q17.864 18.282 17.501 17.952Q17.138 17.622 16.456 17.622Q15.774 17.622 14.861 18.084Q13.948 18.546 13.123 19.338Q12.298 20.13 11.737 21.351Q11.176 22.572 11.176 23.936L11.176 24.31Q12.584 24.046 14.124 23.199Q15.664 22.352 16.764 21.164Q17.864 19.976 17.864 18.92ZM-2.134 13.508Q-2.134 14.806 -0.627 14.806Q0.88 14.806 2.365 14.113Q3.85 13.42 4.895 12.364Q5.94 11.308 6.589 10.021Q7.238 8.734 7.238 7.568Q7.238 7.15 7.128 6.71Q5.17 6.952 3.036 7.964Q0.902 8.976 -0.616 10.505Q-2.134 12.034 -2.134 13.508ZM8.492 22.836Q8.492 24.398 10.296 24.398Q10.45 24.398 10.89 24.354Q10.868 24.178 10.868 23.804Q10.868 22.33 11.473 21.054Q12.078 19.778 12.991 18.975Q13.904 18.172 14.905 17.721Q15.906 17.27 16.72 17.27Q18.392 17.27 18.392 18.656Q18.392 20.372 16.027 22.264Q13.662 24.156 11.22 24.662Q11.462 26.092 12.518 26.84Q13.574 27.588 15.048 27.588Q17.468 27.588 19.404 25.894L19.58 26.004Q17.49 27.852 14.916 27.852Q13.376 27.852 12.287 27.06Q11.198 26.268 10.934 24.728Q10.494 24.794 10.12 24.794Q9.086 24.794 8.481 24.266Q7.876 23.738 7.876 22.649Q7.876 21.56 8.8 19.778Q2.596 23.716 0.902 23.716Q0.462 23.716 0.286 23.056Q0.22 22.792 0.22 22.462Q0.22 21.34 1.331 19.866Q2.442 18.392 4.015 16.951Q5.588 15.51 7.172 14.102Q8.756 12.694 9.867 11.308Q10.978 9.922 10.978 8.855Q10.978 7.788 10.197 7.216Q9.416 6.644 8.074 6.644Q7.722 6.644 7.546 6.666Q7.722 7.26 7.722 7.854Q7.722 9.086 7.095 10.362Q6.468 11.638 5.39 12.694Q4.312 13.75 2.662 14.421Q1.012 15.092 -0.858 15.092Q-1.716 15.092 -2.167 14.674Q-2.618 14.256 -2.618 13.552Q-2.618 12.034 -1.045 10.439Q0.528 8.844 2.761 7.788Q4.994 6.732 7.062 6.468Q6.27 3.96 2.156 3.96C0.762667 3.96 -0.979 4.42567 -3.069 5.357Q-6.204 6.754 -7.612 8.536L-7.81 8.404Q-6.314 6.534 -3.146 5.126C-1.034 4.18733 0.762667 3.718 2.244 3.718Q4.466 3.718 5.742 4.466Q7.018 5.214 7.48 6.446Q7.81 6.402 8.118 6.402Q9.592 6.402 10.461 7.04Q11.33 7.678 11.33 8.965Q11.33 10.252 10.582 11.627Q9.834 13.002 8.701 14.157Q7.568 15.312 6.215 16.544Q4.862 17.776 3.674 18.777Q2.486 19.778 1.617 20.834Q0.748 21.89 0.594 22.704Q0.594 23.32 1.232 23.32Q2.662 23.32 9.152 19.184Q10.978 16.126 14.465 12.727Q17.952 9.328 20.812 7.788Q22.352 6.93 23.188 6.93Q23.804 6.93 23.804 7.502Q23.804 8.646 19.646 12.045Q15.488 15.444 10.274 18.854Q8.492 21.384 8.492 22.836Z" fill="#012840" transform="translate(8 0)" />
  </g>
</svg>