<?xml version="1.0" encoding="utf-8"?>
<svg xmlns="http://www.w3.org/2000/svg" width="76" height="76" fill="cirrentColor" viewBox="0 0 76 76"><path fill="none" stroke="currentColor" stroke-width="2" d="m42.8 6.038 2.676 2.809q.263.277.557.521.293.245.613.454t.661.38.7.302.732.219q.371.088.75.134.38.045.762.046t.762-.04l3.855-.432q.167-.02.334-.03.168-.01.336-.011.167-.002.335.005t.335.022.333.039.33.055q.165.032.328.073t.323.088.319.106.313.12q.154.065.306.137.151.072.299.152t.29.167q.144.088.283.182t.272.195q.134.101.263.21.128.107.251.221t.24.235.228.246.215.257.201.268q.098.137.188.278t.174.287.158.296.144.303.128.31.112.316.096.321.08.326.063.33q.028.165.047.332.019.166.03.334l.244 3.872q.024.38.092.757.067.376.178.742.11.365.262.716.152.35.343.681.19.331.419.638.227.307.489.585.261.279.553.526.292.246.61.458l3.231 2.147q.14.093.275.193.134.1.264.206.13.107.254.22t.242.232.23.243.218.256q.105.13.204.266.099.135.19.276.093.14.177.285.085.145.162.294t.147.301.131.309.116.315q.053.159.1.32.045.162.082.325t.067.329.05.331q.02.167.033.334.012.167.016.335t-.001.336-.018.334-.035.334-.051.331-.069.329-.084.324-.102.32-.117.314-.132.308-.149.301-.163.293-.178.285-.192.274L68.008 40.3q-.226.307-.416.639-.19.331-.34.682t-.26.718-.175.742-.09.758 0 .763q.02.381.085.758.065.376.173.742l1.095 3.723q.047.16.086.324.04.163.07.328t.053.33.037.334.02.335q.005.168.002.335-.003.168-.014.336-.012.167-.032.333-.02.167-.048.332-.028.166-.065.33-.036.163-.081.325-.045.161-.098.32-.053.16-.114.316-.06.156-.13.31-.068.152-.145.302-.076.149-.16.294-.084.146-.175.286-.091.141-.19.277-.097.136-.202.267t-.217.257-.228.245-.242.233-.252.22-.263.208q-.135.1-.274.194-.14.094-.283.18-.144.087-.292.166t-.3.15-.306.136-.314.119-.319.103-.324.088l-3.77.913q-.372.09-.73.221-.359.133-.7.305t-.66.382-.611.456-.556.523q-.262.278-.491.584t-.421.636-.345.68l-1.554 3.555q-.068.154-.142.304-.075.15-.158.296-.082.146-.172.288t-.186.279-.2.269-.214.259-.226.247-.239.236q-.122.114-.25.223-.128.108-.261.21-.134.102-.272.197t-.281.183-.29.168-.298.154-.306.138q-.154.066-.312.123t-.318.107-.323.09-.327.074-.33.058-.333.04-.335.024-.335.007-.336-.01-.334-.028q-.167-.017-.332-.044-.166-.026-.33-.06-.164-.035-.327-.078-.162-.043-.322-.094-.16-.05-.316-.11-.157-.059-.311-.126-.154-.066-.304-.14l-3.476-1.725q-.342-.17-.701-.3-.36-.129-.732-.216t-.751-.131T38 67.26t-.762.044-.751.131-.732.217-.701.299l-3.476 1.724q-.15.075-.304.141-.154.067-.31.126-.158.06-.317.11-.16.051-.322.094-.163.043-.327.078-.164.034-.33.06-.165.026-.332.044t-.334.028q-.168.009-.336.01-.168 0-.335-.007-.168-.008-.335-.024t-.332-.04-.331-.058-.327-.074-.323-.09q-.16-.05-.318-.107t-.312-.123-.306-.138q-.15-.073-.298-.154-.147-.08-.29-.168t-.281-.183-.272-.197-.26-.21q-.129-.109-.251-.223-.122-.115-.239-.236t-.226-.247-.214-.26-.2-.268-.186-.279-.172-.288q-.083-.146-.158-.296t-.142-.304l-1.554-3.555q-.153-.35-.345-.68t-.421-.636-.491-.584-.556-.523-.611-.456-.66-.382-.7-.304-.73-.222l-3.77-.913q-.163-.04-.324-.088t-.32-.103q-.157-.056-.313-.12-.155-.063-.307-.135-.151-.071-.3-.15-.147-.08-.291-.166t-.283-.18q-.14-.093-.274-.194-.134-.1-.263-.207t-.253-.221-.24-.233-.23-.245q-.11-.126-.216-.257-.105-.13-.203-.267-.098-.136-.189-.277-.091-.14-.175-.286t-.16-.294q-.077-.15-.146-.303t-.13-.309-.113-.315-.098-.321-.081-.326q-.037-.163-.065-.329-.029-.165-.048-.332-.02-.166-.032-.333-.011-.168-.014-.336-.003-.167.002-.335.006-.168.02-.335t.036-.333.054-.331.07-.328.086-.325l1.095-3.721q.108-.367.173-.744.065-.376.086-.757.021-.382-.001-.763-.023-.382-.09-.758-.066-.376-.175-.742-.11-.366-.26-.718-.15-.35-.34-.682t-.416-.64L5.69 37.177q-.1-.135-.192-.275t-.178-.284-.163-.293-.148-.3-.133-.309-.118-.314q-.054-.158-.1-.32-.047-.16-.085-.324-.039-.163-.069-.328-.03-.166-.051-.332-.022-.166-.035-.334-.013-.167-.018-.334-.005-.168 0-.336.003-.168.015-.335t.033-.334q.021-.166.05-.331.03-.166.067-.329t.083-.325.1-.32q.053-.16.115-.315.062-.156.131-.309.07-.152.147-.301.077-.15.162-.294.084-.145.176-.285t.19-.276q.1-.136.205-.266.106-.13.218-.256.112-.124.23-.243.118-.12.242-.232t.254-.22q.13-.106.264-.206.135-.1.275-.193l3.23-2.147q.32-.212.61-.459.293-.246.554-.525.262-.278.49-.585t.418-.638.343-.681q.152-.35.262-.716t.178-.742.092-.757l.245-3.872q.01-.168.03-.334.018-.167.046-.332.027-.166.063-.33t.08-.326.096-.321q.052-.16.112-.316.06-.157.128-.31t.144-.303.159-.296.173-.287q.09-.14.188-.277.097-.137.201-.269.105-.131.215-.257.111-.126.228-.246t.24-.235.251-.222.263-.209q.133-.101.272-.195.139-.095.282-.182t.291-.167.299-.152.306-.136.313-.121.319-.106q.16-.048.323-.088t.328-.073.33-.055.333-.04.335-.021.335-.005q.168.001.336.012.167.01.334.029l3.855.431q.38.043.762.041t.762-.046q.379-.046.75-.134.372-.089.731-.22.36-.13.7-.301.342-.171.662-.38.32-.21.613-.454.294-.244.557-.521l2.676-2.81q.116-.12.238-.236t.249-.225.26-.211.27-.199q.138-.095.28-.184t.29-.17.297-.155.305-.14.312-.124.317-.108.323-.093.326-.075q.165-.034.33-.06.166-.025.333-.042t.335-.025T38 3.98t.335.009.335.025.332.043.33.059.327.075.323.093.317.108.312.124.305.14.297.155.29.17.28.184.27.199.26.211q.127.11.25.225.12.115.237.237Z"/></svg>